<?xml version="1.0" encoding="UTF-8" standalone="no"?>
<!-- Created with Inkscape (http://www.inkscape.org/) -->

<svg
   version="1.1"
   id="svg1"
   width="610.66284"
   height="602.91998"
   viewBox="0 0 610.66284 602.91998"
   sodipodi:docname="Image_fx (9).jpg"
   xmlns:inkscape="http://www.inkscape.org/namespaces/inkscape"
   xmlns:sodipodi="http://sodipodi.sourceforge.net/DTD/sodipodi-0.dtd"
   xmlns="http://www.w3.org/2000/svg"
   xmlns:svg="http://www.w3.org/2000/svg">
  <defs
     id="defs1" />
  <sodipodi:namedview
     id="namedview1"
     pagecolor="#ffffff"
     bordercolor="#000000"
     borderopacity="0.25"
     inkscape:showpageshadow="2"
     inkscape:pageopacity="0.0"
     inkscape:pagecheckerboard="0"
     inkscape:deskcolor="#d1d1d1"
     showgrid="false">
    <inkscape:page
       x="0"
       y="0"
       width="610.66284"
       height="602.91998"
       id="page2"
       margin="0"
       bleed="0" />
  </sodipodi:namedview>
  <g
     inkscape:groupmode="layer"
     inkscape:label="Image"
     id="g1"
     transform="translate(-206.58009,-217.99605)">
    <path
       style="fill:#232634"
       d="m 461.47152,793.16563 c -26.96566,-15.21609 -69.71566,-39.36073 -95,-53.65474 L 320.5,713.52177 l -12,-11.06413 c -13.84767,-12.76771 -59.9444,-53.75291 -79,-70.23994 l -13,-11.24768 -4.95995,-14.58079 -4.95995,-14.58079 2.61724,-7.15422 c 1.43949,-3.93482 15.23497,-39.87798 30.65662,-79.8737 l 28.03937,-72.71947 -2.33058,-4.28053 c -1.47556,-2.71013 -2.56579,-6.8486 -2.97172,-11.28052 -0.35263,-3.85 -3.31007,-31.3 -6.5721,-61 -3.26203,-29.7 -7.74787,-71.55 -9.96853,-93 -2.22066,-21.45 -4.25438,-40.23839 -4.51938,-41.75197 l -0.48181,-2.75198 6.2254,3.13944 c 9.62706,4.8549 175.23777,92.54991 183.90525,97.38244 l 7.67986,4.28188 36.32014,-3.50412 36.32014,-3.50413 35,3.16868 c 19.25,1.74278 35.56011,3.34964 36.24469,3.5708 0.68457,0.22116 12.15957,-5.36953 25.5,-12.42376 C 678.85163,272.7713 729.40589,246.00804 754,232.94489 c 15.125,-8.03364 27.66603,-14.4792 27.86896,-14.32346 0.46125,0.35398 -0.44386,9.37948 -8.41167,83.87857 -11.8216,110.5321 -13.08622,120.85231 -15.35364,125.29683 l -2.06008,4.03809 3.84953,10.33254 c 2.11724,5.6829 15.8871,41.60754 30.59969,79.83254 l 26.75015,69.5 -4.80285,14.65482 c -4.67534,14.26575 -4.93742,14.76989 -9.87147,18.98908 -7.61228,6.50938 -78.66835,69.40591 -89.56862,79.28323 -8.71328,7.89558 -13.10234,10.66552 -53,33.44826 -89.30092,50.99347 -146.81193,83.16811 -148.43143,83.04024 -0.58772,-0.0464 -23.13138,-12.5339 -50.09705,-27.75 z M 570.5,768.20227 c 26.95,-14.85738 66.23595,-36.61842 87.30211,-48.35785 L 696.10423,698.5 l 6.03134,-13 c 3.31724,-7.15 10.83129,-23.11645 16.69789,-35.48101 5.8666,-12.36455 10.66654,-22.93341 10.66654,-23.48634 0,-0.91932 -18.78514,-2.43813 -82.01368,-6.63093 l -19.01368,-1.26083 -54.48632,9.35823 c -29.96748,5.14703 -56.00054,9.5581 -57.85125,9.80238 l -3.36493,0.44415 0.60697,26.62717 c 0.33383,14.64495 0.88854,50.76824 1.23269,80.27397 l 0.62572,53.6468 3.13224,-1.78895 C 520.09049,796.02072 543.55,783.05966 570.5,768.20227 Z M 509.05467,766.75 c 0.0301,-17.1875 0.42861,-53.075 0.88564,-79.75 0.45704,-26.675 0.76994,-48.57263 0.69534,-48.66139 -0.0746,-0.0888 -26.23565,-4.55082 -58.13565,-9.91567 l -58,-9.75427 -32.5,2.24569 c -42.32021,2.92424 -67.13806,4.89037 -67.60338,5.35569 -0.20535,0.20535 7.23471,16.5411 16.53346,36.30166 l 16.90683,35.92829 15.83154,8.84094 c 8.70735,4.86252 48.00655,26.63694 87.33155,48.38761 39.325,21.75067 72.4,40.13615 73.5,40.85661 4.52808,2.96575 4.49693,3.16983 4.55467,-29.83516 z M 309.17715,669.43143 C 304.34082,657.91914 298.42377,643.55 296.02815,637.5 c -2.39563,-6.05 -4.45888,-11.13939 -4.58501,-11.30976 -0.12613,-0.17037 -9.26313,0.39213 -20.30443,1.25 C 260.09741,628.29811 250.53595,629 249.89102,629 c -0.64493,0 1.00833,1.9125 3.67391,4.25 15.81937,13.87233 61.15835,54.68588 62.32757,56.10647 0.76588,0.93052 1.54673,1.53763 1.73524,1.34913 0.1885,-0.18851 -3.61426,-9.76188 -8.45059,-21.27417 z m 398.98952,19.763 c 0.18333,-0.44306 15.09882,-14.00506 33.14554,-30.13779 18.04672,-16.13272 32.44672,-29.66213 32,-30.06535 -0.82431,-0.74406 -40.22233,-3.50112 -40.68618,-2.84721 -0.13886,0.19576 -3.6819,8.68092 -7.87343,18.85592 -4.19152,10.175 -10.10215,24.4625 -13.13472,31.75 -3.03256,7.2875 -5.12468,13.25 -4.64915,13.25 0.47553,0 1.0146,-0.3625 1.19794,-0.80557 z M 571.5,617.98036 l 57,-11.34195 25.5,2.24681 c 14.025,1.23575 38.775,3.54098 55,5.12272 16.225,1.58175 39.72201,3.85007 52.21559,5.04071 l 22.71558,2.1648 5.32524,-4.5495 c 4.09999,-3.50272 5.69761,-5.71393 6.94367,-9.61044 1.9204,-6.00526 2.62899,-5.62828 -12.20008,-6.49073 -13.36128,-0.77709 -135.5311,-9.27435 -171,-11.89354 l -29.5,-2.17842 -33.5,5.22873 c -18.425,2.87579 -34.85,5.3164 -36.5,5.42356 -1.65,0.10716 -18.525,-2.20733 -37.5,-5.14331 l -34.5,-5.33815 -17.5,1.163 c -9.625,0.63965 -49.675,3.38811 -89,6.10769 -39.325,2.71958 -79.825,5.48371 -90,6.14252 -10.175,0.6588 -18.60938,1.28334 -18.74306,1.38787 -0.13368,0.10453 0.68383,2.85567 1.81669,6.11366 1.69134,4.86415 2.96424,6.61444 7.11694,9.78612 l 5.0572,3.8625 18.12612,-1.65431 c 9.96936,-0.90988 38.37611,-3.6375 63.12611,-6.06137 24.75,-2.42388 51.41517,-4.96876 59.25592,-5.6553 l 14.25593,-1.24824 47.24407,9.32958 c 25.98425,5.13127 51.96908,10.35286 57.74408,11.60355 5.775,1.25068 11.4,2.16359 12.5,2.02868 1.1,-0.13491 27.65,-5.34916 59,-11.58724 z M 267.16707,590.48253 C 289.35018,588.54792 324.825,585.42387 346,583.5402 c 21.175,-1.88367 49.525,-4.3767 63,-5.54005 48.73723,-4.20769 55.34514,-4.94143 56.1674,-6.23676 0.44108,-0.69487 0.80887,-3.23325 0.81729,-5.64086 0.008,-2.4076 0.93554,-14.50235 2.06028,-26.87722 l 2.04496,-22.49976 -6.65433,-8.62277 c -10.03472,-13.00313 -39.66926,-51.91598 -41.85149,-54.95483 -4.29019,-5.97425 2.43648,1.85139 26.90798,31.3041 l 25.73389,30.97206 -0.52098,4.52794 c -2.28178,19.83115 -4.98351,52.08277 -4.41096,52.65532 0.38795,0.38796 8.468,2.19432 17.95567,4.01414 9.48766,1.81982 18.20367,3.53869 19.36891,3.81971 l 2.11863,0.51094 0.63481,-80.23608 c 0.34914,-44.12984 0.917,-100.64723 1.26189,-125.5942 l 0.62708,-45.35812 -2.88051,0.58539 c -1.58429,0.32196 -15.45968,1.73728 -30.83421,3.14515 -15.37454,1.40786 -28.0921,2.69816 -28.26126,2.86731 -0.16916,0.16916 -10.38755,20.965 -22.70754,46.21298 L 404.17752,428.5 l -11.76027,8.29278 c -10.41289,7.34266 -11.9308,8.12224 -13.24868,6.80436 -1.31789,-1.31789 -2.62098,0.13799 -11.37365,12.70722 -5.43688,7.8076 -10.48485,14.79951 -11.21773,15.53757 C 354.90775,473.52321 301.28572,496 298.9442,496 c -1.16589,0 -2.60822,-2.09188 -4.4817,-6.5 -1.5194,-3.575 -3.03253,-6.47846 -3.36252,-6.45213 -0.32999,0.0263 -6.86974,10.26383 -14.53278,22.75 -7.66305,12.48617 -22.85055,36.73749 -33.75,53.89181 -10.89946,17.15433 -19.8172,31.89183 -19.8172,32.75 0,0.87115 0.84674,1.56032 1.91707,1.56032 1.05439,0 20.06689,-1.58286 42.25,-3.51747 z m 191.24265,-57.44216 c -3.25034,-1.6278 -7.47183,-4.26771 -9.38107,-5.86648 -3.28655,-2.7521 -3.40281,-3.06035 -2.18389,-5.79037 C 448.96433,516.63634 456.17195,505 456.99281,505 c 0.98956,0 4.59322,9.83039 6.41521,17.5 2.20245,9.27115 2.76537,13.5 1.79702,13.5 -0.48708,0 -3.54497,-1.33183 -6.79532,-2.95963 z M 801,592.47441 c 0,-0.83907 -4.8689,-9.05157 -10.81977,-18.25 C 784.22936,565.02598 776.41698,552.775 772.8194,547 c -16.20344,-26.01047 -29.8655,-48.16151 -34.38484,-55.75 -2.70232,-4.5375 -5.18809,-8.25 -5.52392,-8.25 -0.33583,0 -1.85647,2.93142 -3.37921,6.51427 -1.52273,3.58285 -3.10211,6.7204 -3.50974,6.97233 -0.40763,0.25192 -10.59177,-3.72183 -22.63142,-8.83056 C 691.35062,482.5473 678.8,477.31911 675.5,476.03783 c -3.3,-1.28128 -6.96207,-3.27645 -8.13792,-4.43372 -1.90877,-1.87858 -18.1462,-24.64316 -20.36507,-28.55144 -0.7745,-1.36421 -1.05102,-1.32328 -2.27811,0.3372 -1.63912,2.21802 -0.84297,2.61684 -14.71065,-7.36921 l -10.38659,-7.47933 -14.9466,-30.52067 C 596.45443,381.2343 586.44696,360.525 582.43624,352 c -4.01073,-8.525 -7.88713,-15.62235 -8.61424,-15.7719 -2.68058,-0.55132 -60.33919,-5.94147 -60.822,-5.68587 -0.275,0.14558 -0.20845,22.02063 0.14788,48.61123 0.35633,26.5906 0.87658,82.69178 1.1561,124.6693 0.27952,41.97752 0.67815,76.4927 0.88584,76.7004 0.4227,0.4227 38.95569,-7.33534 39.59151,-7.97116 0.2227,-0.2227 -0.84937,-13.16014 -2.38237,-28.74987 l -2.78729,-28.34496 15.97348,-19.47859 C 591.35551,464.55335 600.17098,454 600.65086,454 c 0.24801,0 -0.6527,1.4625 -2.00158,3.25 -1.34887,1.7875 -11.98301,15.85 -23.63142,31.25 l -21.17893,28 0.54965,6.32215 c 0.3023,3.47718 1.29876,16.07718 2.21435,28 0.91559,11.92282 1.73134,21.7672 1.81277,21.8764 0.15161,0.2033 86.17404,7.99935 147.0843,13.32998 18.7,1.63655 45.7,4.04757 60,5.35782 32.66945,2.99336 35.5,3.08012 35.5,1.08806 z M 558,534.67435 c 0,-3.61235 3.46287,-17.75792 5.75459,-23.5071 2.43327,-6.10427 2.58849,-6.26663 4.30216,-4.5 0.97779,1.00801 3.43647,4.8796 5.46372,8.60353 4.86175,8.93072 4.43152,10.49833 -4.27969,15.59363 C 560.99294,535.68868 558,536.7031 558,534.67435 Z m -295.73598,-13.84273 27.53468,-41.66837 -6.14935,-14.56418 c -3.38214,-8.01029 -6.41135,-14.57202 -6.73157,-14.58162 -0.32022,-0.01 -1.06011,1.44505 -1.64419,3.23255 -0.58409,1.7875 -8.48166,22.825 -17.55016,46.75 -15.94268,42.06084 -17.89338,47.14051 -22.65718,59 -1.21511,3.025 -1.788,5.05 -1.2731,4.5 0.51491,-0.55 13.3268,-19.75077 28.47087,-42.66838 z m 524.80913,34.11549 C 785.49686,550.8512 776.00641,525.9 765.98326,499.5 c -10.02315,-26.4 -18.52761,-48.33535 -18.89881,-48.74522 -0.37119,-0.40987 -3.44868,5.83847 -6.83887,13.88522 l -6.16397,14.63044 21.25219,32.11478 c 11.68871,17.66313 24.10291,36.51972 27.58712,41.90353 3.4842,5.38381 6.48866,9.63501 6.67656,9.4471 0.1879,-0.1879 -0.94805,-3.69284 -2.52433,-7.78874 z M 314.55759,482.06474 c 12.31082,-5.62226 12.91198,-4.88396 -6.87683,-8.44549 l -12.81925,-2.30717 0.54428,2.16859 c 1.15334,4.59524 5.80244,13.51933 7.04305,13.51933 0.71623,0 6.16517,-2.22087 12.10875,-4.93526 z M 725.77067,479.75 c 1.67743,-3.9875 2.93925,-7.36351 2.80404,-7.50224 -0.47062,-0.48285 -28.57468,4.12963 -28.57017,4.68898 0.005,0.62812 19.85766,9.77017 21.60585,9.94941 0.61071,0.0626 2.48284,-3.14865 4.16028,-7.13615 z M 353.30779,463.93101 c 0.26108,-0.99836 0.28397,-2.00592 0.0509,-2.23902 -0.2331,-0.2331 -8.26312,1.18689 -17.84448,3.15552 -9.58137,1.96864 -17.18621,3.81379 -16.89967,4.10034 0.28655,0.28655 3.97801,1.21509 8.20325,2.06342 l 7.68224,1.54242 9.16655,-3.40374 c 6.17744,-2.29382 9.32134,-3.99566 9.64124,-5.21894 z m 343.74958,6.92244 c 3.81845,-0.6306 6.94263,-1.4259 6.94263,-1.76733 0,-0.34142 -7.425,-2.22499 -16.5,-4.18571 L 671,461.33547 v 2.19554 c 0,1.83694 1.3475,2.69352 8.25,5.24436 9.76994,3.61051 9.04232,3.5256 17.80737,2.07808 z M 340,459.83014 c 6.875,-1.18801 12.81251,-2.4233 13.19446,-2.74508 C 353.96568,456.43533 360,421.59124 360,417.78768 c 0,-1.32298 -0.64286,-3.27893 -1.42858,-4.34655 -1.41052,-1.91659 -1.43662,-1.91585 -2.06425,0.0589 -1.40227,4.41198 -5.99885,13.57466 -12.16534,24.25 -7.59272,13.14441 -4.7884,12.21541 -28.20209,9.34267 -9.48586,-1.16386 -15.83224,-2.40246 -16.59438,-3.23865 C 296.10796,440.08264 282,415.93579 282,413.8238 c 0,-1.34091 0.9,-7.33662 2,-13.3238 1.1,-5.98718 2,-11.00626 2,-11.15353 0,-0.14726 3.4875,-2.819 7.75,-5.9372 10.29661,-7.5324 9.91851,-7.03939 7.16008,-9.33608 -1.32554,-1.10366 -2.64719,-2.02162 -2.93699,-2.03992 -0.4063,-0.0257 -10.35243,7.10936 -11.75861,8.43523 -0.15704,0.14807 -2.04476,8.95066 -4.19494,19.56133 l -3.9094,19.29211 2.37079,5.58903 c 5.44101,12.82693 18.67424,40.5669 19.63574,41.16114 0.57132,0.35309 6.96629,-0.4209 14.21104,-1.71998 7.24476,-1.29908 18.79729,-3.33398 25.67229,-4.52199 z M 729.15869,456 c 2.56227,-5.225 7.37562,-15.575 10.69631,-23 l 6.03763,-13.5 -1.86154,-8 c -1.02385,-4.4 -2.86803,-13.08879 -4.09819,-19.30842 l -2.23664,-11.30841 -5.94354,-4.57345 -5.94354,-4.57345 -2.52872,2.52873 -2.52872,2.52872 8.54354,6.22992 8.54354,6.22991 1.57502,8.62323 c 3.13599,17.16947 3.13727,17.09958 -0.42463,23.15047 -8.38139,14.23814 -15.31625,24.01281 -17.34725,24.4509 -1.17808,0.25411 -9.34196,1.19921 -18.14196,2.10022 -8.8,0.90102 -16.29717,1.81612 -16.66038,2.03355 -0.8585,0.51394 -8.50571,-12.77674 -15.20157,-26.41998 -5.03298,-10.25501 -5.35507,-10.66767 -6.8123,-8.72794 -1.38873,1.84857 -1.22696,3.86352 1.7572,21.88751 1.80771,10.91833 3.52326,20.08804 3.81235,20.37712 0.28909,0.28909 9.88091,2.23088 21.31516,4.3151 11.43424,2.08422 21.91454,4.00092 23.28954,4.25934 1.375,0.25841 4.075,0.40844 6,0.33339 3.39354,-0.13231 3.6417,-0.42541 8.15869,-9.63646 z m -362.44563,-8.25 c 3.27045,-4.5375 6.28716,-8.83301 6.7038,-9.54558 0.45922,-0.7854 -0.93147,-4.09097 -3.53158,-8.39428 -2.359,-3.90429 -4.40549,-6.69627 -4.54776,-6.20442 -0.14226,0.49185 -1.17938,6.74428 -2.30469,13.89428 -1.12532,7.15 -2.30382,14.2375 -2.61889,15.75 -0.31507,1.5125 -0.36457,2.75 -0.11,2.75 0.25457,0 3.13867,-3.7125 6.40912,-8.25 z m 294.04991,-8.57901 C 659.53736,430.82694 658.23956,424 657.87899,424 c -0.36058,0 -2.46561,2.88679 -4.67784,6.41509 l -4.02225,6.4151 6.58053,9.08158 c 3.6193,4.99488 6.7271,8.93503 6.90624,8.7559 0.17913,-0.17914 -0.67708,-7.15264 -1.9027,-15.49668 z m -268.54023,-9.89174 5.57847,-3.90773 -7.12639,-9.43576 C 378.97774,400.44814 314.17287,311.58343 282.7922,268 c -11.92905,-16.56782 -13.88244,-18.80205 -18.70301,-21.39201 -2.96052,-1.59061 -5.01125,-2.26561 -4.55718,-1.5 0.45407,0.7656 3.37635,5.21701 6.49396,9.89201 3.11761,4.675 10.16292,15.475 15.65625,24 5.49333,8.525 19.13364,29.675 30.31181,47 17.6712,27.38853 29.95648,46.72628 61.30647,96.5 3.81059,6.05 7.39037,11.57264 7.95507,12.27253 1.13775,1.41015 1.04805,1.45509 10.96717,-5.49328 z M 652.15487,419.24573 C 658.01504,410.03558 672.35517,387.425 684.02183,369 711.14654,326.16227 719.02812,313.8776 743.68573,276.00449 754.78789,258.95202 763.46566,245 762.96966,245 c -0.49599,0 -2.51457,0.76907 -4.48572,1.70905 -2.57598,1.2284 -5.90939,4.95483 -11.85254,13.25 -4.54774,6.34752 -11.8809,16.49095 -16.29591,22.54095 -4.41501,6.05 -16.28125,22.475 -26.36944,36.5 -18.82624,26.17301 -64.52661,88.53362 -73.15704,99.82674 l -4.83503,6.32675 7.26301,5.38263 c 3.99466,2.96044 7.48801,5.39899 7.76301,5.41899 0.275,0.02 5.29469,-7.49922 11.15487,-16.70938 z M 416.34618,388.97028 c 7.91271,-16.75865 16.47184,-34.69709 19.02029,-39.86319 2.54844,-5.1661 4.63353,-9.50362 4.63353,-9.63893 0,-0.13531 -10.9125,-5.98521 -24.25,-12.99978 -57.1842,-30.07478 -113.96771,-60.07624 -123.16825,-65.07573 -5.45504,-2.96421 -10.02395,-5.27769 -10.15313,-5.14106 -0.12918,0.13662 7.39812,10.82341 16.72733,23.74841 9.32922,12.925 35.89988,49.96324 59.04593,82.3072 23.14604,32.34396 42.46033,58.43059 42.92063,57.97029 0.46031,-0.46031 7.31096,-14.54855 15.22367,-31.30721 z M 682.44303,338.74621 C 714.5742,293.7858 740.5967,257 740.27082,257 c -0.32589,0 -8.05764,4.00237 -17.18167,8.89415 -9.12403,4.89178 -38.18915,20.2441 -64.58915,34.11628 -26.4,13.87217 -53.92896,28.33843 -61.17547,32.14723 l -13.17546,6.92509 2.08058,4.70863 c 1.14432,2.58974 9.47514,20.23362 18.51294,39.20862 9.0378,18.975 16.6753,35.3059 16.97221,36.29089 0.29692,0.98499 0.93767,1.65829 1.42389,1.49621 0.48622,-0.16207 27.17318,-37.08047 59.30434,-82.04089 z M 338.30591,379.3768 C 331.81266,369.16427 325.825,360.44717 325,360.00546 c -0.825,-0.44172 -3.975,-1.07802 -7,-1.41401 -5.47769,-0.60842 -5.52114,-0.59159 -10.71066,4.14883 l -5.21066,4.75972 23.71066,19.70617 23.71066,19.70617 0.30591,-4.48365 c 0.28767,-4.21618 -0.39837,-5.59135 -11.5,-23.05189 z M 690.5,393.48545 c 7.15,-6.07391 17.18047,-14.58995 22.28993,-18.92453 5.10946,-4.33458 8.93446,-8.18216 8.5,-8.55016 -0.43446,-0.36801 -2.90793,-2.35921 -5.4966,-4.42489 l -4.70667,-3.75578 -6.66226,1.03722 c -3.66424,0.57047 -6.74358,1.1712 -6.84296,1.33495 -0.0994,0.16376 -5.70911,8.82094 -12.46605,19.23819 -12.0539,18.58361 -12.273,19.02285 -11.62955,23.31367 0.58585,3.90674 0.83491,4.23464 2.33498,3.07401 0.92355,-0.71457 7.52918,-6.26878 14.67918,-12.34268 z m -412.08079,-9.01221 c 0.92775,-3.86471 2.0187,-7.56376 2.42434,-8.2201 0.40564,-0.65635 7.24429,-6.62463 15.19699,-13.26286 l 14.45946,-12.0695 5.19984,0.54245 5.19985,0.54245 -8.05607,-12.75284 c -4.43084,-7.01406 -8.44794,-13.17001 -8.92689,-13.67989 -0.51411,-0.5473 -1.4857,0.54453 -2.37183,2.66536 -0.82556,1.97582 -7.30965,15.51963 -14.4091,30.09734 -12.18966,25.02974 -12.87861,26.76648 -12.37845,31.20393 0.62777,5.56953 1.3478,4.57333 3.66186,-5.06634 z M 748.99188,387.5 c 0.0175,-3.10632 -3.02659,-10.36749 -13.62481,-32.5 -7.50602,-15.675 -13.99033,-28.88356 -14.40956,-29.35237 -0.41923,-0.4688 -4.16012,4.35894 -8.31309,10.72832 -10.97512,16.83247 -10.59478,15.64238 -4.7789,14.95357 l 4.8868,-0.57877 15.56673,12.74468 c 17.0499,13.95898 16.06148,12.52477 18.30623,26.56265 0.80196,5.01517 2.3333,3.35991 2.3666,-2.55808 z m -462.69126,-43.91148 12.80062,-26.30307 -8.80062,-13.61076 c -4.84034,-7.48593 -13.4673,-20.84597 -19.17102,-29.689 -5.70372,-8.84302 -10.47951,-15.9449 -10.61286,-15.78196 -0.22479,0.27469 4.0075,40.11454 9.61889,90.54548 1.3004,11.68707 2.58937,21.22518 2.86437,21.1958 0.275,-0.0294 6.26028,-11.8898 13.30062,-26.35649 z M 753.97676,346 c 5.75495,-52.93035 9.04962,-85.42085 8.75244,-86.31239 -0.31499,-0.94498 -10.21443,13.85507 -29.22503,43.69254 l -8.84357,13.88014 12.91792,25.89712 c 9.21748,18.47868 13.11274,25.38801 13.598,24.11986 0.37404,-0.9775 1.63415,-10.55227 2.80024,-21.27727 z"
       id="path1" />
  </g>
</svg>
